<svg width="746" height="249" viewBox="0 0 746 249" fill="none" xmlns="http://www.w3.org/2000/svg">
<path d="M0.125 1.5H28.065V40H22.95V6.34H5.24V40H0.125V1.5ZM36.3262 1.5H50.2962C53.8162 1.5 56.7678 2.69166 59.1512 5.075C61.5345 7.45833 62.7262 10.3917 62.7262 13.875C62.7262 17.3583 61.5345 20.2917 59.1512 22.675C56.7678 25.0583 53.8162 26.25 50.2962 26.25H41.4412V40H36.3262V1.5ZM41.4412 21.465H50.2962C52.4595 21.465 54.2195 20.75 55.5762 19.32C56.9695 17.8167 57.6662 16.0017 57.6662 13.875C57.6662 11.675 56.9695 9.86 55.5762 8.43C54.1828 7 52.4228 6.285 50.2962 6.285H41.4412V21.465ZM66.464 20.75C66.464 15.1767 68.389 10.465 72.239 6.615C76.089 2.72833 80.8007 0.784997 86.374 0.784997C91.9474 0.784997 96.659 2.72833 100.509 6.615C104.396 10.465 106.339 15.1767 106.339 20.75C106.339 26.2867 104.396 30.9983 100.509 34.885C96.659 38.7717 91.9474 40.715 86.374 40.715C80.8007 40.715 76.089 38.7717 72.239 34.885C68.389 30.9617 66.464 26.25 66.464 20.75ZM101.224 20.75C101.224 16.4967 99.794 12.94 96.934 10.08C94.1474 7.18333 90.6274 5.735 86.374 5.735C82.1574 5.735 78.619 7.18333 75.759 10.08C72.9357 12.9767 71.524 16.5333 71.524 20.75C71.524 24.93 72.9357 28.4867 75.759 31.42C78.619 34.28 82.1574 35.71 86.374 35.71C90.6274 35.71 94.1474 34.28 96.934 31.42C99.794 28.4867 101.224 24.93 101.224 20.75ZM138.985 1.5V35.16H143.11V47.37H137.995V40H112.585V47.37H107.47V35.16H110.825C113.208 32.1533 114.4 27.6433 114.4 21.63V1.5H138.985ZM116.6 35.16H133.87V6.285H119.515V21.74C119.515 27.5333 118.543 32.0067 116.6 35.16ZM179.865 40H174.42L171.285 31.365H153.96L150.825 40H145.38L159.735 1.5H165.51L179.865 40ZM162.595 7.605L155.72 26.58H169.525L162.595 7.605ZM211.632 20.31L227.087 40H221.257L206.682 21.52V40H201.622V21.52L187.047 40H181.272L196.672 20.31L181.822 1.5H187.597L201.622 19.155V1.5H206.682V19.155L220.707 1.5H226.537L211.632 20.31ZM263.654 40H258.209L255.074 31.365H237.749L234.614 40H229.169L243.524 1.5H249.299L263.654 40ZM246.384 7.605L239.509 26.58H253.314L246.384 7.605ZM292.396 20.2L309.941 40H303.671L287.061 21.52V40H281.946V1.5H287.061V18.88L303.121 1.5H309.391L292.396 20.2ZM314.495 1.5H328.465C331.985 1.5 334.937 2.69166 337.32 5.075C339.703 7.45833 340.895 10.3917 340.895 13.875C340.895 17.3583 339.703 20.2917 337.32 22.675C334.937 25.0583 331.985 26.25 328.465 26.25H319.61V40H314.495V1.5ZM319.61 21.465H328.465C330.628 21.465 332.388 20.75 333.745 19.32C335.138 17.8167 335.835 16.0017 335.835 13.875C335.835 11.675 335.138 9.86 333.745 8.43C332.352 7 330.592 6.285 328.465 6.285H319.61V21.465ZM344.633 20.75C344.633 15.1767 346.558 10.465 350.408 6.615C354.258 2.72833 358.97 0.784997 364.543 0.784997C370.116 0.784997 374.828 2.72833 378.678 6.615C382.565 10.465 384.508 15.1767 384.508 20.75C384.508 26.2867 382.565 30.9983 378.678 34.885C374.828 38.7717 370.116 40.715 364.543 40.715C358.97 40.715 354.258 38.7717 350.408 34.885C346.558 30.9617 344.633 26.25 344.633 20.75ZM379.393 20.75C379.393 16.4967 377.963 12.94 375.103 10.08C372.316 7.18333 368.796 5.735 364.543 5.735C360.326 5.735 356.788 7.18333 353.928 10.08C351.105 12.9767 349.693 16.5333 349.693 20.75C349.693 24.93 351.105 28.4867 353.928 31.42C356.788 34.28 360.326 35.71 364.543 35.71C368.796 35.71 372.316 34.28 375.103 31.42C377.963 28.4867 379.393 24.93 379.393 20.75ZM412.657 20.035C414.454 20.915 415.866 22.1433 416.892 23.72C417.919 25.2967 418.432 27.0933 418.432 29.11C418.432 32.19 417.351 34.775 415.187 36.865C413.024 38.955 410.384 40 407.267 40H390.657V1.5H406.057C409.101 1.5 411.649 2.50833 413.702 4.525C415.792 6.54166 416.837 9.035 416.837 12.005C416.837 15.4517 415.444 18.1283 412.657 20.035ZM406.057 6.285H395.772V18.055H406.057C407.671 18.055 409.027 17.4867 410.127 16.35C411.227 15.2133 411.777 13.82 411.777 12.17C411.777 10.5567 411.209 9.18167 410.072 8.045C408.972 6.87166 407.634 6.285 406.057 6.285ZM395.772 35.215H407.267C408.991 35.215 410.439 34.61 411.612 33.4C412.786 32.19 413.372 30.705 413.372 28.945C413.372 27.2217 412.767 25.755 411.557 24.545C410.421 23.335 408.991 22.73 407.267 22.73H395.772V35.215ZM429.61 22.95V35.16H447.485V40H424.495V1.5H447.21V6.34H429.61V18.165H445.835V22.95H429.61ZM450.305 40V35.38C452.908 35.7467 454.815 35.0133 456.025 33.18C457.272 31.3467 457.895 28.065 457.895 23.335V1.5H483.305V40H478.19V6.34H463.01V23.335C463.01 26.745 462.68 29.6233 462.02 31.97C461.397 34.3167 460.48 36.0767 459.27 37.25C458.097 38.4233 456.777 39.23 455.31 39.67C453.88 40.0733 452.212 40.1833 450.305 40ZM496.695 15.25H505.55C509.07 15.25 512.022 16.4417 514.405 18.825C516.788 21.2083 517.98 24.1417 517.98 27.625C517.98 31.145 516.788 34.0967 514.405 36.48C512.058 38.8267 509.107 40 505.55 40H491.58V1.5H496.695V15.25ZM496.695 35.215H505.55C507.677 35.215 509.437 34.5 510.83 33.07C512.223 31.64 512.92 29.825 512.92 27.625C512.92 25.4983 512.223 23.7017 510.83 22.235C509.473 20.7683 507.713 20.035 505.55 20.035H496.695V35.215ZM547.836 17.835V1.5H552.896V40H547.836V22.675H529.136V40H524.021V1.5H529.136V17.835H547.836ZM575.106 40H561.136V1.5H566.251V15.25H575.106C578.626 15.25 581.577 16.4417 583.961 18.825C586.344 21.2083 587.536 24.1417 587.536 27.625C587.536 31.145 586.344 34.0967 583.961 36.48C581.614 38.8267 578.662 40 575.106 40ZM596.556 40H591.441V1.5H596.556V40ZM566.251 20.035V35.215H575.106C577.232 35.215 578.992 34.5 580.386 33.07C581.779 31.64 582.476 29.825 582.476 27.625C582.476 25.425 581.779 23.61 580.386 22.18C578.992 20.75 577.232 20.035 575.106 20.035H566.251ZM619.818 20.145L632.193 40H626.363L616.903 24.82L607.443 40H601.668L614.043 20.2L602.383 1.5H608.158L616.903 15.525L625.648 1.5H631.423L619.818 20.145ZM30.375 68.5H36.15V107H31.09V76.915L18.495 97.87H17.835L5.24 76.97V107H0.125V68.5H5.9L18.165 88.85L30.375 68.5ZM75.1828 107H69.7378L66.6028 98.365H49.2778L46.1428 107H40.6978L55.0528 68.5H60.8278L75.1828 107ZM57.9128 74.605L51.0378 93.58H64.8428L57.9128 74.605ZM73.7966 68.5H101.572V73.34H90.1866V107H85.1266V73.34H73.7966V68.5ZM111.749 89.95V102.16H129.624V107H106.634V68.5H129.349V73.34H111.749V85.165H127.974V89.95H111.749ZM135.799 68.5H149.769C153.289 68.5 156.24 69.6917 158.624 72.075C161.007 74.4583 162.199 77.3917 162.199 80.875C162.199 84.3583 161.007 87.2917 158.624 89.675C156.24 92.0583 153.289 93.25 149.769 93.25H140.914V107H135.799V68.5ZM140.914 88.465H149.769C151.932 88.465 153.692 87.75 155.049 86.32C156.442 84.8167 157.139 83.0017 157.139 80.875C157.139 78.675 156.442 76.86 155.049 75.43C153.655 74 151.895 73.285 149.769 73.285H140.914V88.465ZM197.28 107H192.165V78.29L172.365 107H168.24V68.5H173.355V97.265L193.155 68.5H197.28V107ZM236.316 107H230.871L227.736 98.365H210.411L207.276 107H201.831L216.186 68.5H221.961L236.316 107ZM219.046 74.605L212.171 93.58H225.976L219.046 74.605ZM237.664 107V102.38C240.267 102.747 242.174 102.013 243.384 100.18C244.63 98.3467 245.254 95.065 245.254 90.335V68.5H270.664V107H265.549V73.34H250.369V90.335C250.369 93.745 250.039 96.6233 249.379 98.97C248.755 101.317 247.839 103.077 246.629 104.25C245.455 105.423 244.135 106.23 242.669 106.67C241.239 107.073 239.57 107.183 237.664 107ZM276.903 87.75C276.903 82.1767 278.828 77.465 282.678 73.615C286.528 69.7283 291.24 67.785 296.813 67.785C302.387 67.785 307.098 69.7283 310.948 73.615C314.835 77.465 316.778 82.1767 316.778 87.75C316.778 93.2867 314.835 97.9983 310.948 101.885C307.098 105.772 302.387 107.715 296.813 107.715C291.24 107.715 286.528 105.772 282.678 101.885C278.828 97.9617 276.903 93.25 276.903 87.75ZM311.663 87.75C311.663 83.4967 310.233 79.94 307.373 77.08C304.587 74.1833 301.067 72.735 296.813 72.735C292.597 72.735 289.058 74.1833 286.198 77.08C283.375 79.9767 281.963 83.5333 281.963 87.75C281.963 91.93 283.375 95.4867 286.198 98.42C289.058 101.28 292.597 102.71 296.813 102.71C301.067 102.71 304.587 101.28 307.373 98.42C310.233 95.4867 311.663 91.93 311.663 87.75ZM344.928 87.035C346.724 87.915 348.136 89.1433 349.163 90.72C350.189 92.2967 350.703 94.0933 350.703 96.11C350.703 99.19 349.621 101.775 347.458 103.865C345.294 105.955 342.654 107 339.538 107H322.928V68.5H338.328C341.371 68.5 343.919 69.5083 345.973 71.525C348.063 73.5417 349.108 76.035 349.108 79.005C349.108 82.4517 347.714 85.1283 344.928 87.035ZM338.328 73.285H328.043V85.055H338.328C339.941 85.055 341.298 84.4867 342.398 83.35C343.498 82.2133 344.048 80.82 344.048 79.17C344.048 77.5567 343.479 76.1817 342.343 75.045C341.243 73.8717 339.904 73.285 338.328 73.285ZM328.043 102.215H339.538C341.261 102.215 342.709 101.61 343.883 100.4C345.056 99.19 345.643 97.705 345.643 95.945C345.643 94.2217 345.038 92.755 343.828 91.545C342.691 90.335 341.261 89.73 339.538 89.73H328.043V102.215ZM341.168 221.035C342.965 221.915 344.376 223.143 345.403 224.72C346.43 226.297 346.943 228.093 346.943 230.11C346.943 233.19 345.861 235.775 343.698 237.865C341.535 239.955 338.895 241 335.778 241H319.168V202.5H334.568C337.611 202.5 340.16 203.508 342.213 205.525C344.303 207.542 345.348 210.035 345.348 213.005C345.348 216.452 343.955 219.128 341.168 221.035ZM334.568 207.285H324.283V219.055H334.568C336.181 219.055 337.538 218.487 338.638 217.35C339.738 216.213 340.288 214.82 340.288 213.17C340.288 211.557 339.72 210.182 338.583 209.045C337.483 207.872 336.145 207.285 334.568 207.285ZM324.283 236.215H335.778C337.501 236.215 338.95 235.61 340.123 234.4C341.296 233.19 341.883 231.705 341.883 229.945C341.883 228.222 341.278 226.755 340.068 225.545C338.931 224.335 337.501 223.73 335.778 223.73H324.283V236.215ZM394.971 202.5V236.16H399.096V248.37H393.981V241H368.571V248.37H363.456V236.16H366.811C369.194 233.153 370.386 228.643 370.386 222.63V202.5H394.971ZM372.586 236.16H389.856V207.285H375.501V222.74C375.501 228.533 374.529 233.007 372.586 236.16ZM410.113 223.95V236.16H427.988V241H404.998V202.5H427.713V207.34H410.113V219.165H426.338V223.95H410.113ZM457.978 218.835V202.5H463.038V241H457.978V223.675H439.278V241H434.163V202.5H439.278V218.835H457.978ZM476.392 216.25H485.247C488.767 216.25 491.719 217.442 494.102 219.825C496.486 222.208 497.677 225.142 497.677 228.625C497.677 232.145 496.486 235.097 494.102 237.48C491.756 239.827 488.804 241 485.247 241H471.277V202.5H476.392V216.25ZM476.392 236.215H485.247C487.374 236.215 489.134 235.5 490.527 234.07C491.921 232.64 492.617 230.825 492.617 228.625C492.617 226.498 491.921 224.702 490.527 223.235C489.171 221.768 487.411 221.035 485.247 221.035H476.392V236.215ZM536.169 221.09C540.349 222.887 542.439 226.022 542.439 230.495C542.439 233.795 541.192 236.49 538.699 238.58C536.242 240.67 532.979 241.715 528.909 241.715C525.315 241.715 522.364 240.927 520.054 239.35C517.78 237.773 516.167 235.61 515.214 232.86L519.559 230.385C520.695 234.712 523.812 236.875 528.909 236.875C531.549 236.875 533.602 236.288 535.069 235.115C536.572 233.942 537.324 232.347 537.324 230.33C537.324 228.313 536.627 226.718 535.234 225.545C533.84 224.335 531.934 223.73 529.514 223.73H525.004V219.055H528.249C530.559 219.055 532.41 218.487 533.804 217.35C535.234 216.177 535.949 214.655 535.949 212.785C535.949 210.915 535.289 209.412 533.969 208.275C532.649 207.138 530.852 206.57 528.579 206.57C524.325 206.57 521.484 208.458 520.054 212.235L515.764 209.76C518.074 204.443 522.345 201.785 528.579 201.785C532.282 201.785 535.27 202.812 537.544 204.865C539.854 206.882 541.009 209.485 541.009 212.675C541.009 216.378 539.395 219.183 536.169 221.09ZM579.314 241H573.869L570.734 232.365H553.409L550.274 241H544.829L559.184 202.5H564.959L579.314 241ZM562.044 208.605L555.169 227.58H568.974L562.044 208.605ZM594.305 221.2L611.85 241H605.58L588.97 222.52V241H583.855V202.5H588.97V219.88L605.03 202.5H611.3L594.305 221.2ZM647.903 241H642.458L639.323 232.365H621.998L618.863 241H613.418L627.773 202.5H633.548L647.903 241ZM630.633 208.605L623.758 227.58H637.563L630.633 208.605ZM671.144 221.09C675.324 222.887 677.414 226.022 677.414 230.495C677.414 233.795 676.168 236.49 673.674 238.58C671.218 240.67 667.954 241.715 663.884 241.715C660.291 241.715 657.339 240.927 655.029 239.35C652.756 237.773 651.143 235.61 650.189 232.86L654.534 230.385C655.671 234.712 658.788 236.875 663.884 236.875C666.524 236.875 668.578 236.288 670.044 235.115C671.548 233.942 672.299 232.347 672.299 230.33C672.299 228.313 671.603 226.718 670.209 225.545C668.816 224.335 666.909 223.73 664.489 223.73H659.979V219.055H663.224C665.534 219.055 667.386 218.487 668.779 217.35C670.209 216.177 670.924 214.655 670.924 212.785C670.924 210.915 670.264 209.412 668.944 208.275C667.624 207.138 665.828 206.57 663.554 206.57C659.301 206.57 656.459 208.458 655.029 212.235L650.739 209.76C653.049 204.443 657.321 201.785 663.554 201.785C667.258 201.785 670.246 202.812 672.519 204.865C674.829 206.882 675.984 209.485 675.984 212.675C675.984 216.378 674.371 219.183 671.144 221.09ZM714.289 241H708.844L705.709 232.365H688.384L685.249 241H679.804L694.159 202.5H699.934L714.289 241ZM697.019 208.605L690.144 227.58H703.949L697.019 208.605Z" fill="#303030"/>
<path d="M388.611 107.715C382.744 107.715 377.922 105.79 374.146 101.94C370.369 98.1267 368.481 93.3967 368.481 87.75C368.481 82.1033 370.369 77.3733 374.146 73.56C377.922 69.71 382.744 67.785 388.611 67.785C392.094 67.785 395.321 68.6283 398.291 70.315C401.261 72.0017 403.571 74.275 405.221 77.135L400.766 79.72C399.666 77.5933 398.016 75.9067 395.816 74.66C393.652 73.3767 391.251 72.735 388.611 72.735C384.137 72.735 380.507 74.165 377.721 77.025C374.934 79.8483 373.541 83.4233 373.541 87.75C373.541 92.04 374.934 95.5967 377.721 98.42C380.507 101.28 384.137 102.71 388.611 102.71C391.251 102.71 393.652 102.087 395.816 100.84C398.016 99.5567 399.666 97.87 400.766 95.78L405.221 98.31C403.607 101.17 401.316 103.462 398.346 105.185C395.412 106.872 392.167 107.715 388.611 107.715ZM453.14 68.5V102.16H457.265V114.37H452.15V107H426.74V114.37H421.625V102.16H424.98C427.363 99.1533 428.555 94.6433 428.555 88.63V68.5H453.14ZM430.755 102.16H448.025V73.285H433.67V88.74C433.67 94.5333 432.698 99.0067 430.755 102.16ZM460.541 87.75C460.541 82.1767 462.466 77.465 466.316 73.615C470.166 69.7283 474.878 67.785 480.451 67.785C486.025 67.785 490.736 69.7283 494.586 73.615C498.473 77.465 500.416 82.1767 500.416 87.75C500.416 93.2867 498.473 97.9983 494.586 101.885C490.736 105.772 486.025 107.715 480.451 107.715C474.878 107.715 470.166 105.772 466.316 101.885C462.466 97.9617 460.541 93.25 460.541 87.75ZM495.301 87.75C495.301 83.4967 493.871 79.94 491.011 77.08C488.225 74.1833 484.705 72.735 480.451 72.735C476.235 72.735 472.696 74.1833 469.836 77.08C467.013 79.9767 465.601 83.5333 465.601 87.75C465.601 91.93 467.013 95.4867 469.836 98.42C472.696 101.28 476.235 102.71 480.451 102.71C484.705 102.71 488.225 101.28 491.011 98.42C493.871 95.4867 495.301 91.93 495.301 87.75ZM524.66 107.715C518.794 107.715 513.972 105.79 510.195 101.94C506.419 98.1267 504.53 93.3967 504.53 87.75C504.53 82.1033 506.419 77.3733 510.195 73.56C513.972 69.71 518.794 67.785 524.66 67.785C528.144 67.785 531.37 68.6283 534.34 70.315C537.31 72.0017 539.62 74.275 541.27 77.135L536.815 79.72C535.715 77.5933 534.065 75.9067 531.865 74.66C529.702 73.3767 527.3 72.735 524.66 72.735C520.187 72.735 516.557 74.165 513.77 77.025C510.984 79.8483 509.59 83.4233 509.59 87.75C509.59 92.04 510.984 95.5967 513.77 98.42C516.557 101.28 520.187 102.71 524.66 102.71C527.3 102.71 529.702 102.087 531.865 100.84C534.065 99.5567 535.715 97.87 536.815 95.78L541.27 98.31C539.657 101.17 537.365 103.462 534.395 105.185C531.462 106.872 528.217 107.715 524.66 107.715ZM543.499 68.5H571.274V73.34H559.889V107H554.829V73.34H543.499V68.5ZM604.343 107H598.898L595.763 98.365H578.438L575.303 107H569.858L584.213 68.5H589.988L604.343 107ZM587.073 74.605L580.198 93.58H594.003L587.073 74.605ZM630.885 87.035C632.681 87.915 634.093 89.1433 635.12 90.72C636.146 92.2967 636.66 94.0933 636.66 96.11C636.66 99.19 635.578 101.775 633.415 103.865C631.251 105.955 628.611 107 625.495 107H608.885V68.5H624.285C627.328 68.5 629.876 69.5083 631.93 71.525C634.02 73.5417 635.065 76.035 635.065 79.005C635.065 82.4517 633.671 85.1283 630.885 87.035ZM624.285 73.285H614V85.055H624.285C625.898 85.055 627.255 84.4867 628.355 83.35C629.455 82.2133 630.005 80.82 630.005 79.17C630.005 77.5567 629.436 76.1817 628.3 75.045C627.2 73.8717 625.861 73.285 624.285 73.285ZM614 102.215H625.495C627.218 102.215 628.666 101.61 629.84 100.4C631.013 99.19 631.6 97.705 631.6 95.945C631.6 94.2217 630.995 92.755 629.785 91.545C628.648 90.335 627.218 89.73 625.495 89.73H614V102.215ZM653.173 87.2L670.718 107H664.448L647.838 88.52V107H642.723V68.5H647.838V85.88L663.898 68.5H670.168L653.173 87.2ZM669.96 87.75C669.96 82.1767 671.885 77.465 675.735 73.615C679.585 69.7283 684.297 67.785 689.87 67.785C695.443 67.785 700.155 69.7283 704.005 73.615C707.892 77.465 709.835 82.1767 709.835 87.75C709.835 93.2867 707.892 97.9983 704.005 101.885C700.155 105.772 695.443 107.715 689.87 107.715C684.297 107.715 679.585 105.772 675.735 101.885C671.885 97.9617 669.96 93.25 669.96 87.75ZM704.72 87.75C704.72 83.4967 703.29 79.94 700.43 77.08C697.643 74.1833 694.123 72.735 689.87 72.735C685.653 72.735 682.115 74.1833 679.255 77.08C676.432 79.9767 675.02 83.5333 675.02 87.75C675.02 91.93 676.432 95.4867 679.255 98.42C682.115 101.28 685.653 102.71 689.87 102.71C694.123 102.71 697.643 101.28 700.43 98.42C703.29 95.4867 704.72 91.93 704.72 87.75ZM737.929 64.375H723.079V60.195H737.929V64.375ZM745.024 107H739.909V78.29L720.109 107H715.984V68.5H721.099V97.265L740.899 68.5H745.024V107ZM0.125 135.5H28.065V174H22.95V140.34H5.24V174H0.125V135.5ZM34.2912 154.75C34.2912 149.177 36.2162 144.465 40.0662 140.615C43.9162 136.728 48.6278 134.785 54.2012 134.785C59.7745 134.785 64.4862 136.728 68.3362 140.615C72.2228 144.465 74.1662 149.177 74.1662 154.75C74.1662 160.287 72.2228 164.998 68.3362 168.885C64.4862 172.772 59.7745 174.715 54.2012 174.715C48.6278 174.715 43.9162 172.772 40.0662 168.885C36.2162 164.962 34.2912 160.25 34.2912 154.75ZM69.0512 154.75C69.0512 150.497 67.6212 146.94 64.7612 144.08C61.9745 141.183 58.4545 139.735 54.2012 139.735C49.9845 139.735 46.4462 141.183 43.5862 144.08C40.7628 146.977 39.3512 150.533 39.3512 154.75C39.3512 158.93 40.7628 162.487 43.5862 165.42C46.4462 168.28 49.9845 169.71 54.2012 169.71C58.4545 169.71 61.9745 168.28 64.7612 165.42C67.6212 162.487 69.0512 158.93 69.0512 154.75ZM112.16 174.715C106.294 174.715 101.472 172.79 97.6954 168.94C93.9188 165.127 92.0304 160.397 92.0304 154.75C92.0304 149.103 93.9188 144.373 97.6954 140.56C101.472 136.71 106.294 134.785 112.16 134.785C115.644 134.785 118.87 135.628 121.84 137.315C124.81 139.002 127.12 141.275 128.77 144.135L124.315 146.72C123.215 144.593 121.565 142.907 119.365 141.66C117.202 140.377 114.8 139.735 112.16 139.735C107.687 139.735 104.057 141.165 101.27 144.025C98.4838 146.848 97.0904 150.423 97.0904 154.75C97.0904 159.04 98.4838 162.597 101.27 165.42C104.057 168.28 107.687 169.71 112.16 169.71C114.8 169.71 117.202 169.087 119.365 167.84C121.565 166.557 123.215 164.87 124.315 162.78L128.77 165.31C127.157 168.17 124.865 170.462 121.895 172.185C118.962 173.872 115.717 174.715 112.16 174.715ZM164.934 174H159.489L156.354 165.365H139.029L135.894 174H130.449L144.804 135.5H150.579L164.934 174ZM147.664 141.605L140.789 160.58H154.594L147.664 141.605ZM193.291 151.835V135.5H198.351V174H193.291V156.675H174.591V174H169.476V135.5H174.591V151.835H193.291ZM217.04 154.2L234.585 174H228.315L211.705 155.52V174H206.59V135.5H211.705V152.88L227.765 135.5H234.035L217.04 154.2ZM236.004 135.5H263.779V140.34H252.394V174H247.334V140.34H236.004V135.5ZM286.123 159.425H266.048V154.805H286.123V159.425ZM294.354 135.5H322.294V174H317.179V140.34H299.469V174H294.354V135.5ZM335.67 156.95V169.16H353.545V174H330.555V135.5H353.27V140.34H335.67V152.165H351.895V156.95H335.67ZM356.585 135.5H384.36V140.34H372.975V174H367.915V140.34H356.585V135.5ZM394.537 156.95V169.16H412.412V174H389.422V135.5H412.137V140.34H394.537V152.165H410.762V156.95H394.537ZM418.587 135.5H432.557C436.077 135.5 439.029 136.692 441.412 139.075C443.795 141.458 444.987 144.392 444.987 147.875C444.987 151.358 443.795 154.292 441.412 156.675C439.029 159.058 436.077 160.25 432.557 160.25H423.702V174H418.587V135.5ZM423.702 155.465H432.557C434.72 155.465 436.48 154.75 437.837 153.32C439.23 151.817 439.927 150.002 439.927 147.875C439.927 145.675 439.23 143.86 437.837 142.43C436.444 141 434.684 140.285 432.557 140.285H423.702V155.465ZM456.143 150.625H465.493C468.793 150.625 471.617 151.762 473.963 154.035C476.273 156.272 477.428 159.022 477.428 162.285C477.428 165.585 476.273 168.372 473.963 170.645C471.727 172.882 468.903 174 465.493 174H451.028V135.5H474.128V140.34H456.143V150.625ZM456.143 169.215H465.493C467.4 169.215 469.013 168.555 470.333 167.235C471.69 165.915 472.368 164.265 472.368 162.285C472.368 160.342 471.69 158.71 470.333 157.39C469.013 156.07 467.4 155.41 465.493 155.41H456.143V169.215ZM494.297 157.5L503.537 135.5H508.707L496.332 164.87C493.582 171.323 489.164 174.367 483.077 174V169.27C485.167 169.49 486.872 169.197 488.192 168.39C489.549 167.547 490.667 166.08 491.547 163.99L491.932 163.11L478.897 135.5H484.067L494.297 157.5ZM513.387 135.5H527.357C530.877 135.5 533.828 136.692 536.212 139.075C538.595 141.458 539.787 144.392 539.787 147.875C539.787 151.358 538.595 154.292 536.212 156.675C533.828 159.058 530.877 160.25 527.357 160.25H518.502V174H513.387V135.5ZM518.502 155.465H527.357C529.52 155.465 531.28 154.75 532.637 153.32C534.03 151.817 534.727 150.002 534.727 147.875C534.727 145.675 534.03 143.86 532.637 142.43C531.243 141 529.483 140.285 527.357 140.285H518.502V155.465ZM545.828 135.5H567.443V140.34H550.943V174H545.828V135.5ZM585.337 157.5L594.577 135.5H599.747L587.372 164.87C584.622 171.323 580.204 174.367 574.117 174V169.27C576.207 169.49 577.912 169.197 579.232 168.39C580.589 167.547 581.707 166.08 582.587 163.99L582.972 163.11L569.937 135.5H575.107L585.337 157.5ZM29.165 241H24.05V212.29L4.25 241H0.125V202.5H5.24V231.265L25.04 202.5H29.165V241ZM49.1154 221.75C49.1154 216.177 51.0404 211.465 54.8904 207.615C58.7404 203.728 63.4521 201.785 69.0254 201.785C74.5987 201.785 79.3104 203.728 83.1604 207.615C87.0471 211.465 88.9904 216.177 88.9904 221.75C88.9904 227.287 87.0471 231.998 83.1604 235.885C79.3104 239.772 74.5987 241.715 69.0254 241.715C63.4521 241.715 58.7404 239.772 54.8904 235.885C51.0404 231.962 49.1154 227.25 49.1154 221.75ZM83.8754 221.75C83.8754 217.497 82.4454 213.94 79.5854 211.08C76.7987 208.183 73.2787 206.735 69.0254 206.735C64.8087 206.735 61.2704 208.183 58.4104 211.08C55.5871 213.977 54.1754 217.533 54.1754 221.75C54.1754 225.93 55.5871 229.487 58.4104 232.42C61.2704 235.28 64.8087 236.71 69.0254 236.71C73.2787 236.71 76.7987 235.28 79.5854 232.42C82.4454 229.487 83.8754 225.93 83.8754 221.75ZM100.255 217.625H109.605C112.905 217.625 115.728 218.762 118.075 221.035C120.385 223.272 121.54 226.022 121.54 229.285C121.54 232.585 120.385 235.372 118.075 237.645C115.838 239.882 113.015 241 109.605 241H95.1396V202.5H118.24V207.34H100.255V217.625ZM100.255 236.215H109.605C111.511 236.215 113.125 235.555 114.445 234.235C115.801 232.915 116.48 231.265 116.48 229.285C116.48 227.342 115.801 225.71 114.445 224.39C113.125 223.07 111.511 222.41 109.605 222.41H100.255V236.215ZM123.152 241V236.38C125.755 236.747 127.662 236.013 128.872 234.18C130.119 232.347 130.742 229.065 130.742 224.335V202.5H156.152V241H151.037V207.34H135.857V224.335C135.857 227.745 135.527 230.623 134.867 232.97C134.244 235.317 133.327 237.077 132.117 238.25C130.944 239.423 129.624 240.23 128.157 240.67C126.727 241.073 125.059 241.183 123.152 241ZM195.227 241H189.782L186.647 232.365H169.322L166.187 241H160.742L175.097 202.5H180.872L195.227 241ZM177.957 208.605L171.082 227.58H184.887L177.957 208.605ZM216.467 241.715C210.6 241.715 205.779 239.79 202.002 235.94C198.225 232.127 196.337 227.397 196.337 221.75C196.337 216.103 198.225 211.373 202.002 207.56C205.779 203.71 210.6 201.785 216.467 201.785C219.95 201.785 223.177 202.628 226.147 204.315C229.117 206.002 231.427 208.275 233.077 211.135L228.622 213.72C227.522 211.593 225.872 209.907 223.672 208.66C221.509 207.377 219.107 206.735 216.467 206.735C211.994 206.735 208.364 208.165 205.577 211.025C202.79 213.848 201.397 217.423 201.397 221.75C201.397 226.04 202.79 229.597 205.577 232.42C208.364 235.28 211.994 236.71 216.467 236.71C219.107 236.71 221.509 236.087 223.672 234.84C225.872 233.557 227.522 231.87 228.622 229.78L233.077 232.31C231.464 235.17 229.172 237.462 226.202 239.185C223.269 240.872 220.024 241.715 216.467 241.715ZM235.305 202.5H263.08V207.34H251.695V241H246.635V207.34H235.305V202.5ZM297.183 241H292.068V212.29L272.268 241H268.143V202.5H273.258V231.265L293.058 202.5H297.183V241Z" fill="url(#paint0_radial_1_28)"/>
<defs>
<radialGradient id="paint0_radial_1_28" cx="0" cy="0" r="1" gradientUnits="userSpaceOnUse" gradientTransform="translate(445.5 -8.99998) rotate(90) scale(366.267 953.25)">
<stop stop-color="#FFC400"/>
<stop offset="1" stop-color="#FF9900"/>
</radialGradient>
</defs>
</svg>
