<svg width="426" height="79" viewBox="0 0 426 79" fill="none" xmlns="http://www.w3.org/2000/svg">
<path d="M8.866 8.036C9.71667 8.35867 10.3767 8.85 10.846 9.51C11.3153 10.17 11.55 10.9473 11.55 11.842C11.55 13.1327 11.066 14.196 10.098 15.032C9.14467 15.8533 7.854 16.264 6.226 16.264C4.818 16.264 3.66667 15.9487 2.772 15.318C1.87733 14.6873 1.24667 13.844 0.88 12.788L2.2 12.04C2.40533 12.876 2.838 13.5507 3.498 14.064C4.158 14.5627 5.06733 14.812 6.226 14.812C7.39933 14.812 8.32333 14.5407 8.998 13.998C9.67267 13.4553 10.01 12.7367 10.01 11.842C10.01 10.9473 9.702 10.2287 9.086 9.686C8.47 9.14333 7.634 8.872 6.578 8.872H4.818V7.42H6.028C7.06933 7.42 7.898 7.16333 8.514 6.65C9.13 6.122 9.438 5.43267 9.438 4.582C9.438 3.746 9.13733 3.07133 8.536 2.558C7.93467 2.04467 7.128 1.788 6.116 1.788C4.224 1.788 2.97733 2.59467 2.376 4.208L1.1 3.46C1.95067 1.37733 3.62267 0.336 6.116 0.336C7.55333 0.336 8.72667 0.746666 9.636 1.568C10.5307 2.37467 10.978 3.38667 10.978 4.604C10.978 6.144 10.274 7.288 8.866 8.036ZM23.4395 7.156V5H24.8915V16H23.4395V13.844C22.4275 15.4573 20.9461 16.264 18.9955 16.264C17.4261 16.264 16.0841 15.7067 14.9695 14.592C13.8695 13.4773 13.3195 12.1133 13.3195 10.5C13.3195 8.88667 13.8695 7.52267 14.9695 6.408C16.0841 5.29333 17.4261 4.736 18.9955 4.736C20.9461 4.736 22.4275 5.54267 23.4395 7.156ZM16.0255 13.602C16.8615 14.438 17.8881 14.856 19.1055 14.856C20.3228 14.856 21.3495 14.438 22.1855 13.602C23.0215 12.7367 23.4395 11.7027 23.4395 10.5C23.4395 9.28267 23.0215 8.256 22.1855 7.42C21.3495 6.56933 20.3228 6.144 19.1055 6.144C17.8881 6.144 16.8615 6.56933 16.0255 7.42C15.1895 8.256 14.7715 9.28267 14.7715 10.5C14.7715 11.7027 15.1895 12.7367 16.0255 13.602ZM32.2558 2.008L36.3258 0.599999H37.6458V16H36.1058V2.294L32.6518 3.328L32.2558 2.008ZM55.5503 5H57.2223V16H55.7703V7.222L51.9203 13.47H51.7443L47.8943 7.222V16H46.4423V5H48.1143L51.8323 11.028L55.5503 5ZM61.7518 13.47L68.3078 5H69.5398V16H68.0878V7.53L61.5318 16H60.2998V5H61.7518V13.47ZM80.3983 9.796V5H81.8503V16H80.3983V11.204H74.0623V16H72.6103V5H74.0623V9.796H80.3983ZM89.2769 14.218L92.8409 5H94.3809L89.6729 17.012C89.2329 18.1267 88.6169 18.9847 87.8249 19.586C87.0475 20.202 86.1822 20.4733 85.2289 20.4V19.036C86.5489 19.1973 87.5535 18.4347 88.2429 16.748L88.5289 16.066L83.6009 5H85.1409L89.2769 14.218ZM94.8157 5H104.056V6.408H100.162V16H98.7097V6.408H94.8157V5ZM110.181 14.218L113.745 5H115.285L110.577 17.012C110.137 18.1267 109.521 18.9847 108.729 19.586C107.952 20.202 107.086 20.4733 106.133 20.4V19.036C107.453 19.1973 108.458 18.4347 109.147 16.748L109.433 16.066L104.505 5H106.045L110.181 14.218ZM122.54 5H131.78V16H130.328V6.408H123.992V16H122.54V5ZM140.747 4.736C142.316 4.736 143.651 5.29333 144.751 6.408C145.865 7.52267 146.423 8.88667 146.423 10.5C146.423 12.1133 145.865 13.4773 144.751 14.592C143.651 15.7067 142.316 16.264 140.747 16.264C138.796 16.264 137.315 15.4573 136.303 13.844V20.4H134.851V5H136.303V7.156C137.315 5.54267 138.796 4.736 140.747 4.736ZM137.557 13.602C138.393 14.438 139.419 14.856 140.637 14.856C141.854 14.856 142.881 14.438 143.717 13.602C144.553 12.7367 144.971 11.7027 144.971 10.5C144.971 9.28267 144.553 8.256 143.717 7.42C142.881 6.56933 141.854 6.144 140.637 6.144C139.419 6.144 138.393 6.56933 137.557 7.42C136.721 8.256 136.303 9.28267 136.303 10.5C136.303 11.7027 136.721 12.7367 137.557 13.602ZM158.055 14.614C156.926 15.714 155.562 16.264 153.963 16.264C152.335 16.264 150.964 15.714 149.849 14.614C148.734 13.4993 148.177 12.128 148.177 10.5C148.177 8.872 148.734 7.508 149.849 6.408C150.964 5.29333 152.335 4.736 153.963 4.736C155.576 4.736 156.94 5.29333 158.055 6.408C159.184 7.508 159.749 8.872 159.749 10.5C159.749 12.1133 159.184 13.4847 158.055 14.614ZM150.883 13.602C151.719 14.438 152.746 14.856 153.963 14.856C155.18 14.856 156.207 14.438 157.043 13.602C157.879 12.7367 158.297 11.7027 158.297 10.5C158.297 9.28267 157.879 8.256 157.043 7.42C156.207 6.56933 155.18 6.144 153.963 6.144C152.746 6.144 151.719 6.56933 150.883 7.42C150.047 8.256 149.629 9.28267 149.629 10.5C149.629 11.7027 150.047 12.7367 150.883 13.602ZM169.659 3.24H163.939V1.964H169.659V3.24ZM163.631 13.47L170.187 5H171.419V16H169.967V7.53L163.411 16H162.179V5H163.631V13.47ZM183.729 5V14.592H185.269V18.948H183.817V16H174.841V18.948H173.389V14.592H174.731C175.479 13.5947 175.853 12.2087 175.853 10.434V5H183.729ZM176.491 14.592H182.277V6.408H177.305V10.434C177.305 12.1353 177.034 13.5213 176.491 14.592ZM188.918 13.47L195.474 5H196.706V16H195.254V7.53L188.698 16H187.466V5H188.918V13.47ZM198.456 5H207.696V6.408H203.802V16H202.35V6.408H198.456V5ZM214.118 4.736C215.761 4.736 217.073 5.31533 218.056 6.474C219.068 7.618 219.574 8.97467 219.574 10.544C219.574 10.6173 219.559 10.8447 219.53 11.226H209.872C210.019 12.326 210.488 13.206 211.28 13.866C212.072 14.526 213.062 14.856 214.25 14.856C215.922 14.856 217.103 14.2327 217.792 12.986L219.068 13.734C218.584 14.526 217.917 15.1493 217.066 15.604C216.23 16.044 215.284 16.264 214.228 16.264C212.497 16.264 211.089 15.7213 210.004 14.636C208.919 13.5507 208.376 12.172 208.376 10.5C208.376 8.84267 208.911 7.47133 209.982 6.386C211.053 5.286 212.431 4.736 214.118 4.736ZM214.118 6.144C212.974 6.144 212.013 6.48133 211.236 7.156C210.473 7.83067 210.019 8.718 209.872 9.818H218.078C217.917 8.64467 217.469 7.74267 216.736 7.112C215.973 6.46667 215.101 6.144 214.118 6.144ZM226.064 5H235.304V6.408H231.41V16H229.958V6.408H226.064V5ZM241.726 4.736C243.368 4.736 244.681 5.31533 245.664 6.474C246.676 7.618 247.182 8.97467 247.182 10.544C247.182 10.6173 247.167 10.8447 247.138 11.226H237.48C237.626 12.326 238.096 13.206 238.888 13.866C239.68 14.526 240.67 14.856 241.858 14.856C243.53 14.856 244.71 14.2327 245.4 12.986L246.676 13.734C246.192 14.526 245.524 15.1493 244.674 15.604C243.838 16.044 242.892 16.264 241.836 16.264C240.105 16.264 238.697 15.7213 237.612 14.636C236.526 13.5507 235.984 12.172 235.984 10.5C235.984 8.84267 236.519 7.47133 237.59 6.386C238.66 5.286 240.039 4.736 241.726 4.736ZM241.726 6.144C240.582 6.144 239.621 6.48133 238.844 7.156C238.081 7.83067 237.626 8.718 237.48 9.818H245.686C245.524 8.64467 245.077 7.74267 244.344 7.112C243.581 6.46667 242.708 6.144 241.726 6.144ZM254.617 16.264C252.96 16.264 251.581 15.714 250.481 14.614C249.381 13.4847 248.831 12.1133 248.831 10.5C248.831 8.872 249.381 7.508 250.481 6.408C251.581 5.29333 252.96 4.736 254.617 4.736C255.703 4.736 256.678 5 257.543 5.528C258.409 6.04133 259.039 6.738 259.435 7.618L258.247 8.3C257.954 7.64 257.477 7.11933 256.817 6.738C256.172 6.342 255.439 6.144 254.617 6.144C253.4 6.144 252.373 6.56933 251.537 7.42C250.701 8.256 250.283 9.28267 250.283 10.5C250.283 11.7027 250.701 12.7367 251.537 13.602C252.373 14.438 253.4 14.856 254.617 14.856C255.424 14.856 256.15 14.6653 256.795 14.284C257.455 13.9027 257.969 13.3747 258.335 12.7L259.545 13.404C259.091 14.284 258.423 14.9807 257.543 15.494C256.663 16.0073 255.688 16.264 254.617 16.264ZM260.095 5H269.335V6.408H265.441V16H263.989V6.408H260.095V5ZM278.056 13.47L284.612 5H285.844V16H284.392V7.53L277.836 16H276.604V5H278.056V13.47ZM192.386 34H201.626V45H200.174V35.408H193.838V45H192.386V34ZM213.914 43.614C212.785 44.714 211.421 45.264 209.822 45.264C208.194 45.264 206.823 44.714 205.708 43.614C204.594 42.4993 204.036 41.128 204.036 39.5C204.036 37.872 204.594 36.508 205.708 35.408C206.823 34.2933 208.194 33.736 209.822 33.736C211.436 33.736 212.8 34.2933 213.914 35.408C215.044 36.508 215.608 37.872 215.608 39.5C215.608 41.1133 215.044 42.4847 213.914 43.614ZM206.742 42.602C207.578 43.438 208.605 43.856 209.822 43.856C211.04 43.856 212.066 43.438 212.902 42.602C213.738 41.7367 214.156 40.7027 214.156 39.5C214.156 38.2827 213.738 37.256 212.902 36.42C212.066 35.5693 211.04 35.144 209.822 35.144C208.605 35.144 207.578 35.5693 206.742 36.42C205.906 37.256 205.488 38.2827 205.488 39.5C205.488 40.7027 205.906 41.7367 206.742 42.602ZM226.848 34V43.592H228.388V47.948H226.936V45H217.96V47.948H216.508V43.592H217.85C218.598 42.5947 218.972 41.2087 218.972 39.434V34H226.848ZM219.61 43.592H225.396V35.408H220.424V39.434C220.424 41.1353 220.153 42.5213 219.61 43.592ZM243.081 39.346C244.284 39.786 244.885 40.644 244.885 41.92C244.885 42.8293 244.577 43.57 243.961 44.142C243.36 44.714 242.516 45 241.431 45H236.085V34H240.991C242.047 34 242.868 34.2713 243.455 34.814C244.056 35.3567 244.357 36.068 244.357 36.948C244.357 38.048 243.932 38.8473 243.081 39.346ZM240.991 35.408H237.537V38.752H240.991C242.267 38.752 242.905 38.18 242.905 37.036C242.905 36.5227 242.736 36.1267 242.399 35.848C242.076 35.5547 241.607 35.408 240.991 35.408ZM237.537 43.592H241.431C242.076 43.592 242.568 43.438 242.905 43.13C243.257 42.822 243.433 42.3893 243.433 41.832C243.433 41.304 243.257 40.8933 242.905 40.6C242.568 40.3067 242.076 40.16 241.431 40.16H237.537V43.592ZM256.545 36.156V34H257.997V45H256.545V42.844C255.533 44.4573 254.052 45.264 252.101 45.264C250.532 45.264 249.19 44.7067 248.075 43.592C246.975 42.4773 246.425 41.1133 246.425 39.5C246.425 37.8867 246.975 36.5227 248.075 35.408C249.19 34.2933 250.532 33.736 252.101 33.736C254.052 33.736 255.533 34.5427 256.545 36.156ZM249.131 42.602C249.967 43.438 250.994 43.856 252.211 43.856C253.428 43.856 254.455 43.438 255.291 42.602C256.127 41.7367 256.545 40.7027 256.545 39.5C256.545 38.2827 256.127 37.256 255.291 36.42C254.455 35.5693 253.428 35.144 252.211 35.144C250.994 35.144 249.967 35.5693 249.131 36.42C248.295 37.256 247.877 38.2827 247.877 39.5C247.877 40.7027 248.295 41.7367 249.131 42.602ZM274.359 43.592V34H275.811V45H261.071V34H262.523V43.592H267.715V34H269.167V43.592H274.359ZM293.6 43.614C292.47 44.714 291.106 45.264 289.508 45.264C287.88 45.264 286.508 44.714 285.394 43.614C284.279 42.4993 283.722 41.128 283.722 39.5C283.722 37.872 284.279 36.508 285.394 35.408C286.508 34.2933 287.88 33.736 289.508 33.736C291.121 33.736 292.485 34.2933 293.6 35.408C294.729 36.508 295.294 37.872 295.294 39.5C295.294 41.1133 294.729 42.4847 293.6 43.614ZM286.428 42.602C287.264 43.438 288.29 43.856 289.508 43.856C290.725 43.856 291.752 43.438 292.588 42.602C293.424 41.7367 293.842 40.7027 293.842 39.5C293.842 38.2827 293.424 37.256 292.588 36.42C291.752 35.5693 290.725 35.144 289.508 35.144C288.29 35.144 287.264 35.5693 286.428 36.42C285.592 37.256 285.174 38.2827 285.174 39.5C285.174 40.7027 285.592 41.7367 286.428 42.602ZM302.608 45.264C301.038 45.264 299.718 44.7433 298.648 43.702C297.592 42.646 297.064 41.282 297.064 39.61C297.064 37.7327 297.342 36.2953 297.9 35.298C298.457 34.286 299.586 33.3693 301.288 32.548C301.83 32.2987 302.256 32.108 302.564 31.976C303.077 31.7707 303.48 31.5947 303.774 31.448C305.05 30.8613 305.695 30.1353 305.71 29.27L306.854 29.93C306.78 30.2967 306.663 30.6267 306.502 30.92C306.311 31.2427 306.12 31.4993 305.93 31.69C305.754 31.8807 305.475 32.086 305.094 32.306C304.844 32.4527 304.544 32.614 304.192 32.79L303.092 33.252L302.058 33.692C301.046 34.132 300.29 34.594 299.792 35.078C299.308 35.5473 298.963 36.1633 298.758 36.926C299.227 36.2953 299.843 35.8187 300.606 35.496C301.368 35.1587 302.138 34.99 302.916 34.99C304.382 34.99 305.592 35.474 306.546 36.442C307.514 37.3953 307.998 38.62 307.998 40.116C307.998 41.5973 307.484 42.8293 306.458 43.812C305.446 44.78 304.162 45.264 302.608 45.264ZM299.748 42.734C300.51 43.4527 301.464 43.812 302.608 43.812C303.752 43.812 304.69 43.4673 305.424 42.778C306.172 42.074 306.546 41.1867 306.546 40.116C306.546 39.0307 306.194 38.1433 305.49 37.454C304.8 36.75 303.876 36.398 302.718 36.398C301.676 36.398 300.73 36.728 299.88 37.388C299.029 38.0187 298.604 38.884 298.604 39.984C298.604 41.0987 298.985 42.0153 299.748 42.734ZM312.768 38.18H315.782C316.794 38.18 317.66 38.5027 318.378 39.148C319.097 39.7787 319.456 40.5927 319.456 41.59C319.456 42.602 319.097 43.4233 318.378 44.054C317.689 44.6847 316.824 45 315.782 45H311.316V35.408H308.236V34H312.768V38.18ZM312.768 43.592H315.782C316.413 43.592 316.941 43.4087 317.366 43.042C317.792 42.6607 318.004 42.1767 318.004 41.59C318.004 41.0033 317.792 40.5267 317.366 40.16C316.941 39.7787 316.413 39.588 315.782 39.588H312.768V43.592ZM326.632 33.736C328.274 33.736 329.587 34.3153 330.57 35.474C331.582 36.618 332.088 37.9747 332.088 39.544C332.088 39.6173 332.073 39.8447 332.044 40.226H322.386C322.532 41.326 323.002 42.206 323.794 42.866C324.586 43.526 325.576 43.856 326.764 43.856C328.436 43.856 329.616 43.2327 330.306 41.986L331.582 42.734C331.098 43.526 330.43 44.1493 329.58 44.604C328.744 45.044 327.798 45.264 326.742 45.264C325.011 45.264 323.603 44.7213 322.518 43.636C321.432 42.5507 320.89 41.172 320.89 39.5C320.89 37.8427 321.425 36.4713 322.496 35.386C323.566 34.286 324.945 33.736 326.632 33.736ZM326.632 35.144C325.488 35.144 324.527 35.4813 323.75 36.156C322.987 36.8307 322.532 37.718 322.386 38.818H330.592C330.43 37.6447 329.983 36.7427 329.25 36.112C328.487 35.4667 327.614 35.144 326.632 35.144ZM337.389 39.28L343.285 45H341.349L335.849 39.698V45H334.397V34H335.849V38.862L341.085 34H343.065L337.389 39.28ZM343.949 34H353.189V35.408H349.295V45H347.843V35.408H343.949V34ZM6.666 74.264C5.00867 74.264 3.63 73.714 2.53 72.614C1.43 71.4847 0.88 70.1133 0.88 68.5C0.88 66.872 1.43 65.508 2.53 64.408C3.63 63.2933 5.00867 62.736 6.666 62.736C7.75133 62.736 8.72667 63 9.592 63.528C10.4573 64.0413 11.088 64.738 11.484 65.618L10.296 66.3C10.0027 65.64 9.526 65.1193 8.866 64.738C8.22067 64.342 7.48733 64.144 6.666 64.144C5.44867 64.144 4.422 64.5693 3.586 65.42C2.75 66.256 2.332 67.2827 2.332 68.5C2.332 69.7027 2.75 70.7367 3.586 71.602C4.422 72.438 5.44867 72.856 6.666 72.856C7.47267 72.856 8.19867 72.6653 8.844 72.284C9.504 71.9027 10.0173 71.3747 10.384 70.7L11.594 71.404C11.1393 72.284 10.472 72.9807 9.592 73.494C8.712 74.0073 7.73667 74.264 6.666 74.264ZM17.8587 63H27.0987V64.408H23.2047V74H21.7527V64.408H17.8587V63ZM37.6564 72.614C36.5271 73.714 35.1631 74.264 33.5644 74.264C31.9364 74.264 30.5651 73.714 29.4504 72.614C28.3358 71.4993 27.7784 70.128 27.7784 68.5C27.7784 66.872 28.3358 65.508 29.4504 64.408C30.5651 63.2933 31.9364 62.736 33.5644 62.736C35.1778 62.736 36.5418 63.2933 37.6564 64.408C38.7858 65.508 39.3504 66.872 39.3504 68.5C39.3504 70.1133 38.7858 71.4847 37.6564 72.614ZM30.4844 71.602C31.3204 72.438 32.3471 72.856 33.5644 72.856C34.7818 72.856 35.8084 72.438 36.6444 71.602C37.4804 70.7367 37.8984 69.7027 37.8984 68.5C37.8984 67.2827 37.4804 66.256 36.6444 65.42C35.8084 64.5693 34.7818 64.144 33.5644 64.144C32.3471 64.144 31.3204 64.5693 30.4844 65.42C29.6484 66.256 29.2304 67.2827 29.2304 68.5C29.2304 69.7027 29.6484 70.7367 30.4844 71.602ZM48.6934 68.478V63H50.1454V74H48.6934V69.82C47.8427 70.26 46.7941 70.48 45.5474 70.48C44.0954 70.48 42.9954 70.15 42.2474 69.49C41.4994 68.8153 41.1254 67.8253 41.1254 66.52V63H42.5774V66.52C42.5774 67.4293 42.8121 68.0893 43.2814 68.5C43.7654 68.9107 44.5061 69.116 45.5034 69.116C46.6181 69.116 47.6814 68.9033 48.6934 68.478ZM61.0194 67.796V63H62.4714V74H61.0194V69.204H54.6834V74H53.2314V63H54.6834V67.796H61.0194ZM74.76 72.614C73.6306 73.714 72.2666 74.264 70.668 74.264C69.04 74.264 67.6686 73.714 66.554 72.614C65.4393 71.4993 64.882 70.128 64.882 68.5C64.882 66.872 65.4393 65.508 66.554 64.408C67.6686 63.2933 69.04 62.736 70.668 62.736C72.2813 62.736 73.6453 63.2933 74.76 64.408C75.8893 65.508 76.454 66.872 76.454 68.5C76.454 70.1133 75.8893 71.4847 74.76 72.614ZM67.588 71.602C68.424 72.438 69.4506 72.856 70.668 72.856C71.8853 72.856 72.912 72.438 73.748 71.602C74.584 70.7367 75.002 69.7027 75.002 68.5C75.002 67.2827 74.584 66.256 73.748 65.42C72.912 64.5693 71.8853 64.144 70.668 64.144C69.4506 64.144 68.424 64.5693 67.588 65.42C66.752 66.256 66.334 67.2827 66.334 68.5C66.334 69.7027 66.752 70.7367 67.588 71.602ZM84.0098 74.264C82.3524 74.264 80.9738 73.714 79.8738 72.614C78.7738 71.4847 78.2238 70.1133 78.2238 68.5C78.2238 66.872 78.7738 65.508 79.8738 64.408C80.9738 63.2933 82.3524 62.736 84.0098 62.736C85.0951 62.736 86.0704 63 86.9358 63.528C87.8011 64.0413 88.4318 64.738 88.8278 65.618L87.6398 66.3C87.3464 65.64 86.8698 65.1193 86.2098 64.738C85.5644 64.342 84.8311 64.144 84.0098 64.144C82.7924 64.144 81.7658 64.5693 80.9298 65.42C80.0938 66.256 79.6758 67.2827 79.6758 68.5C79.6758 69.7027 80.0938 70.7367 80.9298 71.602C81.7658 72.438 82.7924 72.856 84.0098 72.856C84.8164 72.856 85.5424 72.6653 86.1878 72.284C86.8478 71.9027 87.3611 71.3747 87.7278 70.7L88.9378 71.404C88.4831 72.284 87.8158 72.9807 86.9358 73.494C86.0558 74.0073 85.0804 74.264 84.0098 74.264ZM89.4876 63H98.7276V64.408H94.8336V74H93.3816V64.408H89.4876V63ZM101.949 67.18H104.963C105.975 67.18 106.84 67.5027 107.559 68.148C108.278 68.7787 108.637 69.5927 108.637 70.59C108.637 71.602 108.278 72.4233 107.559 73.054C106.87 73.6847 106.004 74 104.963 74H100.497V63H101.949V67.18ZM101.949 72.592H104.963C105.594 72.592 106.122 72.4087 106.547 72.042C106.972 71.6607 107.185 71.1767 107.185 70.59C107.185 70.0033 106.972 69.5267 106.547 69.16C106.122 68.7787 105.594 68.588 104.963 68.588H101.949V72.592ZM120.225 62.736C121.838 62.736 123.202 63.2933 124.317 64.408C125.446 65.508 126.011 66.872 126.011 68.5C126.011 70.1133 125.446 71.4847 124.317 72.614C123.188 73.714 121.824 74.264 120.225 74.264C118.758 74.264 117.482 73.7873 116.397 72.834C115.326 71.8513 114.718 70.6413 114.571 69.204H112.283V74H110.831V63H112.283V67.796H114.571C114.732 66.344 115.341 65.1413 116.397 64.188C117.468 63.22 118.744 62.736 120.225 62.736ZM117.145 71.602C117.981 72.438 119.008 72.856 120.225 72.856C121.442 72.856 122.469 72.438 123.305 71.602C124.141 70.7367 124.559 69.7027 124.559 68.5C124.559 67.2827 124.141 66.256 123.305 65.42C122.469 64.5693 121.442 64.144 120.225 64.144C119.008 64.144 117.981 64.5693 117.145 65.42C116.309 66.256 115.891 67.2827 115.891 68.5C115.891 69.7027 116.309 70.7367 117.145 71.602ZM143.387 63.418C143.387 64.5767 143.071 65.6033 142.441 66.498L137.403 74H135.665L139.449 68.368C139.053 68.456 138.642 68.5 138.217 68.5C136.691 68.5 135.452 68.0307 134.499 67.092C133.531 66.1533 133.047 64.9287 133.047 63.418C133.047 61.9367 133.531 60.7193 134.499 59.766C135.481 58.8127 136.721 58.336 138.217 58.336C139.713 58.336 140.952 58.8127 141.935 59.766C142.903 60.7193 143.387 61.9367 143.387 63.418ZM135.577 60.822C134.917 61.482 134.587 62.3473 134.587 63.418C134.587 64.4887 134.917 65.354 135.577 66.014C136.266 66.674 137.146 67.004 138.217 67.004C139.302 67.004 140.175 66.674 140.835 66.014C141.509 65.354 141.847 64.4887 141.847 63.418C141.847 62.3473 141.509 61.482 140.835 60.822C140.175 60.162 139.302 59.832 138.217 59.832C137.146 59.832 136.266 60.162 135.577 60.822ZM144.063 60.052V58.6H153.523V60.052L147.715 74H146.109L151.917 60.052H144.063ZM159.094 64.936C158.126 64.936 157.327 64.6207 156.696 63.99C156.051 63.3447 155.728 62.56 155.728 61.636C155.728 60.7267 156.051 59.9493 156.696 59.304C157.342 58.6587 158.141 58.336 159.094 58.336C160.048 58.336 160.847 58.6587 161.492 59.304C162.138 59.9493 162.46 60.7267 162.46 61.636C162.46 62.5747 162.145 63.3593 161.514 63.99C160.884 64.6207 160.077 64.936 159.094 64.936ZM157.136 61.636C157.136 62.1933 157.32 62.6627 157.686 63.044C158.053 63.4253 158.522 63.616 159.094 63.616C159.666 63.616 160.136 63.4253 160.502 63.044C160.869 62.6627 161.052 62.1933 161.052 61.636C161.052 61.0787 160.869 60.6093 160.502 60.228C160.136 59.8467 159.666 59.656 159.094 59.656C158.522 59.656 158.053 59.8467 157.686 60.228C157.32 60.6093 157.136 61.0787 157.136 61.636ZM157.422 72.438L156.498 71.91L166.816 60.316L167.762 60.844L157.422 72.438ZM167.718 73.318C167.088 73.9487 166.288 74.264 165.32 74.264C164.352 74.264 163.553 73.9487 162.922 73.318C162.277 72.6727 161.954 71.888 161.954 70.964C161.954 70.0547 162.277 69.2773 162.922 68.632C163.568 67.9867 164.367 67.664 165.32 67.664C166.274 67.664 167.073 67.9867 167.718 68.632C168.364 69.2773 168.686 70.0547 168.686 70.964C168.686 71.888 168.364 72.6727 167.718 73.318ZM163.362 70.964C163.362 71.5213 163.546 71.9907 163.912 72.372C164.279 72.7533 164.748 72.944 165.32 72.944C165.892 72.944 166.362 72.7533 166.728 72.372C167.095 71.9907 167.278 71.5213 167.278 70.964C167.278 70.4067 167.095 69.9373 166.728 69.556C166.362 69.1747 165.892 68.984 165.32 68.984C164.748 68.984 164.279 69.1747 163.912 69.556C163.546 69.9373 163.362 70.4067 163.362 70.964ZM178.498 71.47L185.054 63H186.286V74H184.834V65.53L178.278 74H177.046V63H178.498V71.47ZM194.856 63H204.096V74H202.644V64.408H196.308V74H194.856V63ZM216.385 72.614C215.256 73.714 213.892 74.264 212.293 74.264C210.665 74.264 209.294 73.714 208.179 72.614C207.064 71.4993 206.507 70.128 206.507 68.5C206.507 66.872 207.064 65.508 208.179 64.408C209.294 63.2933 210.665 62.736 212.293 62.736C213.906 62.736 215.27 63.2933 216.385 64.408C217.514 65.508 218.079 66.872 218.079 68.5C218.079 70.1133 217.514 71.4847 216.385 72.614ZM209.213 71.602C210.049 72.438 211.076 72.856 212.293 72.856C213.51 72.856 214.537 72.438 215.373 71.602C216.209 70.7367 216.627 69.7027 216.627 68.5C216.627 67.2827 216.209 66.256 215.373 65.42C214.537 64.5693 213.51 64.144 212.293 64.144C211.076 64.144 210.049 64.5693 209.213 65.42C208.377 66.256 207.959 67.2827 207.959 68.5C207.959 69.7027 208.377 70.7367 209.213 71.602ZM221.223 63H229.099V74H227.647V64.408H222.675V69.314C222.675 71.1473 222.323 72.4087 221.619 73.098C220.93 73.7873 219.976 74.088 218.759 74V72.636C219.61 72.724 220.233 72.5187 220.629 72.02C221.025 71.5213 221.223 70.6193 221.223 69.314V63ZM236.531 72.218L240.095 63H241.635L236.927 75.012C236.487 76.1267 235.871 76.9847 235.079 77.586C234.301 78.202 233.436 78.4733 232.483 78.4V77.036C233.803 77.1973 234.807 76.4347 235.497 74.748L235.783 74.066L230.855 63H232.395L236.531 72.218ZM250.518 68.478V63H251.97V74H250.518V69.82C249.667 70.26 248.618 70.48 247.372 70.48C245.92 70.48 244.82 70.15 244.072 69.49C243.324 68.8153 242.95 67.8253 242.95 66.52V63H244.402V66.52C244.402 67.4293 244.636 68.0893 245.106 68.5C245.59 68.9107 246.33 69.116 247.328 69.116C248.442 69.116 249.506 68.9033 250.518 68.478ZM256.508 71.47L263.064 63H264.296V74H262.844V65.53L256.288 74H255.056V63H256.508V71.47ZM266.046 63H275.286V64.408H271.392V74H269.94V64.408H266.046V63ZM281.708 62.736C283.351 62.736 284.663 63.3153 285.646 64.474C286.658 65.618 287.164 66.9747 287.164 68.544C287.164 68.6173 287.149 68.8447 287.12 69.226H277.462C277.609 70.326 278.078 71.206 278.87 71.866C279.662 72.526 280.652 72.856 281.84 72.856C283.512 72.856 284.693 72.2327 285.382 70.986L286.658 71.734C286.174 72.526 285.507 73.1493 284.656 73.604C283.82 74.044 282.874 74.264 281.818 74.264C280.087 74.264 278.679 73.7213 277.594 72.636C276.509 71.5507 275.966 70.172 275.966 68.5C275.966 66.8427 276.501 65.4713 277.572 64.386C278.643 63.286 280.021 62.736 281.708 62.736ZM281.708 64.144C280.564 64.144 279.603 64.4813 278.826 65.156C278.063 65.8307 277.609 66.718 277.462 67.818H285.668C285.507 66.6447 285.059 65.7427 284.326 65.112C283.563 64.4667 282.691 64.144 281.708 64.144ZM294.974 63H304.214V74H302.762V64.408H296.426V74H294.974V63ZM316.502 72.614C315.373 73.714 314.009 74.264 312.41 74.264C310.782 74.264 309.411 73.714 308.296 72.614C307.181 71.4993 306.624 70.128 306.624 68.5C306.624 66.872 307.181 65.508 308.296 64.408C309.411 63.2933 310.782 62.736 312.41 62.736C314.023 62.736 315.387 63.2933 316.502 64.408C317.631 65.508 318.196 66.872 318.196 68.5C318.196 70.1133 317.631 71.4847 316.502 72.614ZM309.33 71.602C310.166 72.438 311.193 72.856 312.41 72.856C313.627 72.856 314.654 72.438 315.49 71.602C316.326 70.7367 316.744 69.7027 316.744 68.5C316.744 67.2827 316.326 66.256 315.49 65.42C314.654 64.5693 313.627 64.144 312.41 64.144C311.193 64.144 310.166 64.5693 309.33 65.42C308.494 66.256 308.076 67.2827 308.076 68.5C308.076 69.7027 308.494 70.7367 309.33 71.602ZM329.436 63V72.592H330.976V76.948H329.524V74H320.548V76.948H319.096V72.592H320.438C321.186 71.5947 321.56 70.2087 321.56 68.434V63H329.436ZM322.198 72.592H327.984V64.408H323.012V68.434C323.012 70.1353 322.741 71.5213 322.198 72.592ZM342.203 65.156V63H343.655V74H342.203V71.844C341.191 73.4573 339.71 74.264 337.759 74.264C336.19 74.264 334.848 73.7067 333.733 72.592C332.633 71.4773 332.083 70.1133 332.083 68.5C332.083 66.8867 332.633 65.5227 333.733 64.408C334.848 63.2933 336.19 62.736 337.759 62.736C339.71 62.736 341.191 63.5427 342.203 65.156ZM334.789 71.602C335.625 72.438 336.652 72.856 337.869 72.856C339.086 72.856 340.113 72.438 340.949 71.602C341.785 70.7367 342.203 69.7027 342.203 68.5C342.203 67.2827 341.785 66.256 340.949 65.42C340.113 64.5693 339.086 64.144 337.869 64.144C336.652 64.144 335.625 64.5693 334.789 65.42C333.953 66.256 333.535 67.2827 333.535 68.5C333.535 69.7027 333.953 70.7367 334.789 71.602ZM352.625 62.736C354.195 62.736 355.529 63.2933 356.629 64.408C357.744 65.5227 358.301 66.8867 358.301 68.5C358.301 70.1133 357.744 71.4773 356.629 72.592C355.529 73.7067 354.195 74.264 352.625 74.264C350.675 74.264 349.193 73.4573 348.181 71.844V78.4H346.729V63H348.181V65.156C349.193 63.5427 350.675 62.736 352.625 62.736ZM349.435 71.602C350.271 72.438 351.298 72.856 352.515 72.856C353.733 72.856 354.759 72.438 355.595 71.602C356.431 70.7367 356.849 69.7027 356.849 68.5C356.849 67.2827 356.431 66.256 355.595 65.42C354.759 64.5693 353.733 64.144 352.515 64.144C351.298 64.144 350.271 64.5693 349.435 65.42C348.599 66.256 348.181 67.2827 348.181 68.5C348.181 69.7027 348.599 70.7367 349.435 71.602ZM363.708 68.28L369.604 74H367.668L362.168 68.698V74H360.716V63H362.168V67.862L367.404 63H369.384L363.708 68.28ZM373.039 71.47L379.595 63H380.827V74H379.375V65.53L372.819 74H371.587V63H373.039V71.47Z" fill="black"/>
<path d="M300.399 4.714C301.939 4.714 303.252 5.27867 304.337 6.408C305.422 7.53733 305.965 8.90133 305.965 10.5C305.965 12.1133 305.422 13.4847 304.337 14.614C303.266 15.7287 301.954 16.286 300.399 16.286C298.58 16.286 297.194 15.56 296.241 14.108V20.4H294.327V5H296.241V6.892C297.194 5.44 298.58 4.714 300.399 4.714ZM300.157 14.438C301.257 14.438 302.181 14.064 302.929 13.316C303.677 12.5387 304.051 11.6 304.051 10.5C304.051 9.38533 303.677 8.454 302.929 7.706C302.181 6.94333 301.257 6.562 300.157 6.562C299.042 6.562 298.111 6.94333 297.363 7.706C296.615 8.454 296.241 9.38533 296.241 10.5C296.241 11.6 296.615 12.5387 297.363 13.316C298.111 14.064 299.042 14.438 300.157 14.438ZM317.357 6.892V5H319.271V16H317.357V14.108C316.418 15.56 315.032 16.286 313.199 16.286C311.644 16.286 310.332 15.7287 309.261 14.614C308.176 13.4847 307.633 12.1133 307.633 10.5C307.633 8.90133 308.176 7.53733 309.261 6.408C310.346 5.27867 311.659 4.714 313.199 4.714C315.032 4.714 316.418 5.44 317.357 6.892ZM313.441 14.438C314.556 14.438 315.487 14.064 316.235 13.316C316.983 12.5387 317.357 11.6 317.357 10.5C317.357 9.38533 316.983 8.454 316.235 7.706C315.487 6.94333 314.556 6.562 313.441 6.562C312.341 6.562 311.417 6.94333 310.669 7.706C309.921 8.454 309.547 9.38533 309.547 10.5C309.547 11.6 309.921 12.5387 310.669 13.316C311.417 14.064 312.341 14.438 313.441 14.438ZM327.341 16.286C325.683 16.286 324.305 15.736 323.205 14.636C322.105 13.5213 321.555 12.1427 321.555 10.5C321.555 8.85733 322.105 7.486 323.205 6.386C324.305 5.27133 325.683 4.714 327.341 4.714C328.426 4.714 329.401 4.978 330.267 5.506C331.132 6.01933 331.777 6.716 332.203 7.596L330.597 8.52C330.318 7.93333 329.885 7.464 329.299 7.112C328.727 6.76 328.074 6.584 327.341 6.584C326.241 6.584 325.317 6.958 324.569 7.706C323.835 8.46867 323.469 9.4 323.469 10.5C323.469 11.5853 323.835 12.5093 324.569 13.272C325.317 14.02 326.241 14.394 327.341 14.394C328.074 14.394 328.734 14.2253 329.321 13.888C329.907 13.536 330.355 13.0667 330.663 12.48L332.291 13.426C331.807 14.306 331.125 15.0027 330.245 15.516C329.365 16.0293 328.397 16.286 327.341 16.286ZM339.2 16.286C337.543 16.286 336.164 15.736 335.064 14.636C333.964 13.5213 333.414 12.1427 333.414 10.5C333.414 8.85733 333.964 7.486 335.064 6.386C336.164 5.27133 337.543 4.714 339.2 4.714C340.285 4.714 341.261 4.978 342.126 5.506C342.991 6.01933 343.637 6.716 344.062 7.596L342.456 8.52C342.177 7.93333 341.745 7.464 341.158 7.112C340.586 6.76 339.933 6.584 339.2 6.584C338.1 6.584 337.176 6.958 336.428 7.706C335.695 8.46867 335.328 9.4 335.328 10.5C335.328 11.5853 335.695 12.5093 336.428 13.272C337.176 14.02 338.1 14.394 339.2 14.394C339.933 14.394 340.593 14.2253 341.18 13.888C341.767 13.536 342.214 13.0667 342.522 12.48L344.15 13.426C343.666 14.306 342.984 15.0027 342.104 15.516C341.224 16.0293 340.256 16.286 339.2 16.286ZM352.755 10.258V5H354.669V16H352.755V12.04C351.86 12.4213 350.87 12.612 349.785 12.612C348.362 12.612 347.27 12.2747 346.507 11.6C345.744 10.9253 345.363 9.94267 345.363 8.652V5H347.277V8.542C347.277 9.34867 347.49 9.93533 347.915 10.302C348.355 10.654 349.022 10.83 349.917 10.83C350.929 10.83 351.875 10.6393 352.755 10.258ZM359.469 12.722L365.563 5H367.103V16H365.211V8.278L359.117 16H357.577V5H359.469V12.722ZM368.784 5H378.2V6.848H374.46V16H372.546V6.848H368.784V5ZM388.556 6.892V5H390.47V16H388.556V14.108C387.617 15.56 386.231 16.286 384.398 16.286C382.843 16.286 381.531 15.7287 380.46 14.614C379.375 13.4847 378.832 12.1133 378.832 10.5C378.832 8.90133 379.375 7.53733 380.46 6.408C381.545 5.27867 382.858 4.714 384.398 4.714C386.231 4.714 387.617 5.44 388.556 6.892ZM384.64 14.438C385.755 14.438 386.686 14.064 387.434 13.316C388.182 12.5387 388.556 11.6 388.556 10.5C388.556 9.38533 388.182 8.454 387.434 7.706C386.686 6.94333 385.755 6.562 384.64 6.562C383.54 6.562 382.616 6.94333 381.868 7.706C381.12 8.454 380.746 9.38533 380.746 10.5C380.746 11.6 381.12 12.5387 381.868 13.316C382.616 14.064 383.54 14.438 384.64 14.438ZM401.114 3.35H395.174V1.678H401.114V3.35ZM395.262 12.722L401.356 5H402.896V16H401.004V8.278L394.91 16H393.37V5H395.262V12.722ZM404.577 5H413.993V6.848H410.253V16H408.339V6.848H404.577V5ZM425.801 11.38H416.583C416.774 12.348 417.221 13.1107 417.925 13.668C418.629 14.2107 419.509 14.482 420.565 14.482C422.017 14.482 423.073 13.9467 423.733 12.876L425.361 13.8C424.276 15.4573 422.662 16.286 420.521 16.286C418.79 16.286 417.368 15.7433 416.253 14.658C415.168 13.5433 414.625 12.1573 414.625 10.5C414.625 8.828 415.16 7.44933 416.231 6.364C417.302 5.264 418.688 4.714 420.389 4.714C422.002 4.714 423.315 5.286 424.327 6.43C425.354 7.54467 425.867 8.90867 425.867 10.522C425.867 10.8007 425.845 11.0867 425.801 11.38ZM420.389 6.518C419.377 6.518 418.526 6.804 417.837 7.376C417.162 7.948 416.744 8.72533 416.583 9.708H423.931C423.77 8.696 423.366 7.91133 422.721 7.354C422.076 6.79667 421.298 6.518 420.389 6.518ZM6.622 45.286C4.96467 45.286 3.586 44.736 2.486 43.636C1.386 42.5213 0.836 41.1427 0.836 39.5C0.836 37.8573 1.386 36.486 2.486 35.386C3.586 34.2713 4.96467 33.714 6.622 33.714C7.70733 33.714 8.68267 33.978 9.548 34.506C10.4133 35.0193 11.0587 35.716 11.484 36.596L9.878 37.52C9.59933 36.9333 9.16667 36.464 8.58 36.112C8.008 35.76 7.35533 35.584 6.622 35.584C5.522 35.584 4.598 35.958 3.85 36.706C3.11667 37.4687 2.75 38.4 2.75 39.5C2.75 40.5853 3.11667 41.5093 3.85 42.272C4.598 43.02 5.522 43.394 6.622 43.394C7.35533 43.394 8.01533 43.2253 8.602 42.888C9.18867 42.536 9.636 42.0667 9.944 41.48L11.572 42.426C11.088 43.306 10.406 44.0027 9.526 44.516C8.646 45.0293 7.678 45.286 6.622 45.286ZM12.0579 34H21.4739V35.848H17.7339V45H15.8199V35.848H12.0579V34ZM32.0055 43.614C30.8909 44.7287 29.5195 45.286 27.8915 45.286C26.2635 45.286 24.8922 44.7287 23.7775 43.614C22.6629 42.4993 22.1055 41.128 22.1055 39.5C22.1055 37.872 22.6629 36.5007 23.7775 35.386C24.8922 34.2713 26.2635 33.714 27.8915 33.714C29.5195 33.714 30.8909 34.2713 32.0055 35.386C33.1349 36.5153 33.6995 37.8867 33.6995 39.5C33.6995 41.1133 33.1349 42.4847 32.0055 43.614ZM27.8915 43.416C28.9915 43.416 29.9155 43.042 30.6635 42.294C31.4115 41.546 31.7855 40.6147 31.7855 39.5C31.7855 38.3853 31.4115 37.454 30.6635 36.706C29.9155 35.958 28.9915 35.584 27.8915 35.584C26.8062 35.584 25.8895 35.958 25.1415 36.706C24.3935 37.454 24.0195 38.3853 24.0195 39.5C24.0195 40.6147 24.3935 41.546 25.1415 42.294C25.8895 43.042 26.8062 43.416 27.8915 43.416ZM37.8479 41.722L43.9419 34H45.4819V45H43.5899V37.278L37.4959 45H35.9559V34H37.8479V41.722ZM57.3494 34H59.3954V45H57.5254V37.014L54.0274 42.646H53.7854L50.2874 37.014V45H48.3954V34H50.4414L53.8954 39.566L57.3494 34ZM71.6012 43.614C70.4866 44.7287 69.1152 45.286 67.4872 45.286C65.8592 45.286 64.4879 44.7287 63.3732 43.614C62.2586 42.4993 61.7012 41.128 61.7012 39.5C61.7012 37.872 62.2586 36.5007 63.3732 35.386C64.4879 34.2713 65.8592 33.714 67.4872 33.714C69.1152 33.714 70.4866 34.2713 71.6012 35.386C72.7306 36.5153 73.2952 37.8867 73.2952 39.5C73.2952 41.1133 72.7306 42.4847 71.6012 43.614ZM67.4872 43.416C68.5872 43.416 69.5112 43.042 70.2592 42.294C71.0072 41.546 71.3812 40.6147 71.3812 39.5C71.3812 38.3853 71.0072 37.454 70.2592 36.706C69.5112 35.958 68.5872 35.584 67.4872 35.584C66.4019 35.584 65.4852 35.958 64.7372 36.706C63.9892 37.454 63.6152 38.3853 63.6152 39.5C63.6152 40.6147 63.9892 41.546 64.7372 42.294C65.4852 43.042 66.4019 43.416 67.4872 43.416ZM80.7216 45.286C79.0643 45.286 77.6856 44.736 76.5856 43.636C75.4856 42.5213 74.9356 41.1427 74.9356 39.5C74.9356 37.8573 75.4856 36.486 76.5856 35.386C77.6856 34.2713 79.0643 33.714 80.7216 33.714C81.8069 33.714 82.7823 33.978 83.6476 34.506C84.5129 35.0193 85.1583 35.716 85.5836 36.596L83.9776 37.52C83.6989 36.9333 83.2663 36.464 82.6796 36.112C82.1076 35.76 81.4549 35.584 80.7216 35.584C79.6216 35.584 78.6976 35.958 77.9496 36.706C77.2163 37.4687 76.8496 38.4 76.8496 39.5C76.8496 40.5853 77.2163 41.5093 77.9496 42.272C78.6976 43.02 79.6216 43.394 80.7216 43.394C81.4549 43.394 82.1149 43.2253 82.7016 42.888C83.2883 42.536 83.7356 42.0667 84.0436 41.48L85.6716 42.426C85.1876 43.306 84.5056 44.0027 83.6256 44.516C82.7456 45.0293 81.7776 45.286 80.7216 45.286ZM86.1575 34H95.5735V35.848H91.8335V45H89.9195V35.848H86.1575V34ZM99.1648 37.96H101.893C102.993 37.96 103.902 38.29 104.621 38.95C105.354 39.5953 105.721 40.4387 105.721 41.48C105.721 42.5213 105.354 43.372 104.621 44.032C103.887 44.6773 102.978 45 101.893 45H97.2508V34H99.1648V37.96ZM99.1648 43.218H101.893C102.45 43.218 102.912 43.0567 103.279 42.734C103.645 42.4113 103.829 41.9933 103.829 41.48C103.829 40.9667 103.638 40.5487 103.257 40.226C102.89 39.8887 102.435 39.72 101.893 39.72H99.1648V43.218ZM117.15 39.324L122.584 45H120.208L115.192 39.786V45H113.278V34H115.192V38.862L119.944 34H122.408L117.15 39.324ZM130.436 33.714C131.976 33.714 133.289 34.2787 134.374 35.408C135.459 36.5373 136.002 37.9013 136.002 39.5C136.002 41.1133 135.459 42.4847 134.374 43.614C133.303 44.7287 131.991 45.286 130.436 45.286C128.617 45.286 127.231 44.56 126.278 43.108V49.4H124.364V34H126.278V35.892C127.231 34.44 128.617 33.714 130.436 33.714ZM130.194 43.438C131.294 43.438 132.218 43.064 132.966 42.316C133.714 41.5387 134.088 40.6 134.088 39.5C134.088 38.3853 133.714 37.454 132.966 36.706C132.218 35.9433 131.294 35.562 130.194 35.562C129.079 35.562 128.148 35.9433 127.4 36.706C126.652 37.454 126.278 38.3853 126.278 39.5C126.278 40.6 126.652 41.5387 127.4 42.316C128.148 43.064 129.079 43.438 130.194 43.438ZM147.57 43.614C146.455 44.7287 145.084 45.286 143.456 45.286C141.828 45.286 140.457 44.7287 139.342 43.614C138.227 42.4993 137.67 41.128 137.67 39.5C137.67 37.872 138.227 36.5007 139.342 35.386C140.457 34.2713 141.828 33.714 143.456 33.714C145.084 33.714 146.455 34.2713 147.57 35.386C148.699 36.5153 149.264 37.8867 149.264 39.5C149.264 41.1133 148.699 42.4847 147.57 43.614ZM143.456 43.416C144.556 43.416 145.48 43.042 146.228 42.294C146.976 41.546 147.35 40.6147 147.35 39.5C147.35 38.3853 146.976 37.454 146.228 36.706C145.48 35.958 144.556 35.584 143.456 35.584C142.371 35.584 141.454 35.958 140.706 36.706C139.958 37.454 139.584 38.3853 139.584 39.5C139.584 40.6147 139.958 41.546 140.706 42.294C141.454 43.042 142.371 43.416 143.456 43.416ZM158.846 39.346C159.976 39.8153 160.54 40.666 160.54 41.898C160.54 42.8367 160.232 43.592 159.616 44.164C159 44.7213 158.135 45 157.02 45H151.52V34H156.58C157.666 34 158.509 34.2713 159.11 34.814C159.726 35.3567 160.034 36.0827 160.034 36.992C160.034 38.048 159.638 38.8327 158.846 39.346ZM156.492 35.716H153.39V38.598H156.492C157.607 38.598 158.164 38.1067 158.164 37.124C158.164 36.1853 157.607 35.716 156.492 35.716ZM153.39 43.262H156.91C157.468 43.262 157.893 43.13 158.186 42.866C158.494 42.602 158.648 42.228 158.648 41.744C158.648 41.2893 158.494 40.9373 158.186 40.688C157.893 40.424 157.468 40.292 156.91 40.292H153.39V43.262ZM163.296 34H171.458V45H169.544V35.848H165.21V40.336C165.21 42.096 164.858 43.35 164.154 44.098C163.45 44.8313 162.416 45.132 161.052 45V43.196C161.815 43.2987 162.379 43.13 162.746 42.69C163.113 42.2353 163.296 41.436 163.296 40.292V34ZM176.25 41.722L182.344 34H183.884V45H181.992V37.278L175.898 45H174.358V34H176.25V41.722Z" fill="url(#paint0_radial_23_17)"/>
<defs>
<radialGradient id="paint0_radial_23_17" cx="0" cy="0" r="1" gradientUnits="userSpaceOnUse" gradientTransform="translate(217 -4.99999) rotate(90) scale(118.9 460.19)">
<stop stop-color="#FFC400"/>
<stop offset="1" stop-color="#FF9900"/>
</radialGradient>
</defs>
</svg>
