<svg width="40" height="40" viewBox="0 0 40 40" fill="none" xmlns="http://www.w3.org/2000/svg">
<circle cx="20" cy="20" r="20" fill="#DCE0E4"/>
<path d="M25 20.5C25.2761 20.5 25.5 20.2761 25.5 20C25.5 19.7239 25.2761 19.5 25 19.5V20.5ZM14.6464 19.6464C14.4512 19.8417 14.4512 20.1583 14.6464 20.3536L17.8284 23.5355C18.0237 23.7308 18.3403 23.7308 18.5355 23.5355C18.7308 23.3403 18.7308 23.0237 18.5355 22.8284L15.7071 20L18.5355 17.1716C18.7308 16.9763 18.7308 16.6597 18.5355 16.4645C18.3403 16.2692 18.0237 16.2692 17.8284 16.4645L14.6464 19.6464ZM25 19.5H15V20.5H25V19.5Z" fill="black"/>
</svg>
